<svg xmlns="http://www.w3.org/2000/svg" width="16" height="16" viewBox="0 0 16 16">
  <g id="_16" data-name="16" transform="translate(-224 -35)">
    <rect id="사각형_147782" data-name="사각형 147782" width="16" height="16" transform="translate(224 35)" fill="none"/>
    <rect id="사각형_147783" data-name="사각형 147783" width="14" height="14" transform="translate(225 36)" fill="none"/>
    <path id="패스_6900" data-name="패스 6900" d="M9.979,1H3.14A1.223,1.223,0,0,0,2,2.286v9H3.14v-9H9.979Zm1.71,2.572H5.42A1.223,1.223,0,0,0,4.28,4.859v9a1.223,1.223,0,0,0,1.14,1.286h6.269a1.223,1.223,0,0,0,1.14-1.286v-9A1.223,1.223,0,0,0,11.689,3.572Zm0,10.29H5.42v-9h6.269Z" transform="translate(223 35)" fill="#fff"/>
  </g>
</svg>
